<?xml version="1.0" encoding="utf-8"?>
<!-- Generator: Adobe Illustrator 18.1.1, SVG Export Plug-In . SVG Version: 6.00 Build 0)  -->
<svg version="1.1" id="图层_1" xmlns="http://www.w3.org/2000/svg" xmlns:xlink="http://www.w3.org/1999/xlink" x="0px" y="0px"
	 viewBox="0 0 73.7 56.7" enable-background="new 0 0 73.7 56.7" xml:space="preserve">
<g>
	<g>
		<path fill="#8D6341" d="M58.6,55.8c2,0,3.6-1.6,3.6-3.6c0-2.1-1.5-3.6-3.6-3.6c-2,0-3.6,1.6-3.6,3.6C55,54.2,56.6,55.8,58.6,55.8
			L58.6,55.8z M33.1,25.6c-0.3,0-0.6,0.1-0.8,0.3c-0.2,0.2-0.3,0.5-0.3,0.8v1.3c0,0.4,0.2,0.8,0.6,1c0.3,0.2,0.8,0.2,1.1,0
			c0.3-0.2,0.6-0.6,0.6-1v-1.3c0-0.3-0.1-0.6-0.3-0.8C33.7,25.8,33.4,25.6,33.1,25.6L33.1,25.6z M47.3,25.6c-0.6,0-1.1,0.5-1.1,1.1
			v1.3c0,0.4,0.2,0.8,0.6,1c0.3,0.2,0.8,0.2,1.1,0c0.3-0.2,0.6-0.6,0.6-1v-1.3C48.4,26.1,47.9,25.6,47.3,25.6L47.3,25.6z M33.1,19.2
			c-0.3,0-0.6,0.1-0.8,0.3C32.1,19.7,32,20,32,20.3v1.3c0,0.4,0.2,0.8,0.6,1c0.3,0.2,0.8,0.2,1.1,0c0.3-0.2,0.6-0.6,0.6-1v-1.3
			C34.2,19.7,33.7,19.2,33.1,19.2L33.1,19.2z M47.3,32.1c-0.6,0-1.1,0.5-1.1,1.1v1.3c0,0.4,0.2,0.8,0.6,1c0.3,0.2,0.8,0.2,1.1,0
			c0.3-0.2,0.6-0.6,0.6-1v-1.3C48.4,32.6,47.9,32.1,47.3,32.1L47.3,32.1z M33.1,32.1c-0.3,0-0.6,0.1-0.8,0.3
			c-0.2,0.2-0.3,0.5-0.3,0.8v1.3c0,0.4,0.2,0.8,0.6,1c0.3,0.2,0.8,0.2,1.1,0c0.3-0.2,0.6-0.6,0.6-1v-1.3
			C34.2,32.6,33.7,32.1,33.1,32.1L33.1,32.1z M26.7,38.5c-0.3,0-0.6,0.1-0.8,0.3c-0.2,0.2-0.3,0.5-0.3,0.8v1.3c0,0.4,0.2,0.8,0.6,1
			c0.3,0.2,0.8,0.2,1.1,0c0.3-0.2,0.6-0.6,0.6-1v-1.3c0-0.3-0.1-0.6-0.3-0.8C27.3,38.6,27,38.5,26.7,38.5L26.7,38.5z M33.1,38.5
			L33.1,38.5c-0.6,0-1.1,0.5-1.1,1.1v1.3c0,0.4,0.2,0.8,0.6,1s0.8,0.2,1.1,0c0.3-0.2,0.6-0.6,0.6-1v-1.3
			C34.2,39,33.7,38.5,33.1,38.5L33.1,38.5z M26.7,32.1c-0.6,0-1.1,0.5-1.1,1.1v1.3c0,0.6,0.5,1.1,1.1,1.1c0.6,0,1.1-0.5,1.1-1.1
			v-1.3c0-0.3-0.1-0.6-0.3-0.8C27.3,32.2,27,32.1,26.7,32.1L26.7,32.1z M26.7,25.6c-0.3,0-0.6,0.1-0.8,0.3c-0.2,0.2-0.3,0.5-0.3,0.8
			v1.3c0,0.4,0.2,0.8,0.6,1c0.3,0.2,0.8,0.2,1.1,0c0.3-0.2,0.6-0.6,0.6-1v-1.3c0-0.3-0.1-0.6-0.3-0.8C27.3,25.8,27,25.6,26.7,25.6
			L26.7,25.6z M26.7,25.6"/>
		<path fill="#8D6341" d="M19.1,9v36H19c-0.6,0-1.1,0.5-1.1,1.1c0,0.6,0.5,1.1,1.1,1.1h36c0.6,0,1.1-0.5,1.1-1.1
			c0-0.6-0.5-1.1-1.1-1.1h-0.2V14.3c0-0.9-0.5-1.7-1.2-2.1L42,5.5V3.3c0-0.8-0.4-1.5-1-2c-0.6-0.5-1.4-0.6-2.2-0.4l-18,5.8
			C19.8,7,19.1,8,19.1,9L19.1,9z M42,8.1l10.6,6.1V45H42V8.1z M21.4,8.9l18.3-5.9V45H21.4V8.9z M21.4,8.9"/>
	</g>
	<path fill="#8D6341" d="M47.3,38.5L47.3,38.5c-0.6,0-1.1,0.5-1.1,1.1v1.3c0,0.4,0.2,0.8,0.6,1c0.3,0.2,0.8,0.2,1.1,0
		c0.3-0.2,0.6-0.6,0.6-1v-1.3C48.4,39,47.9,38.5,47.3,38.5L47.3,38.5z M47.3,38.5"/>
	<path fill="#8D6341" d="M7,54.1h59.8c2.9,0,5.1-2.3,5.2-5.1l-5.2-18.3v0c0-2.7-2.3-4.8-5.2-4.8h-3.3c-0.6,0-1.2,0.6-1.2,1.2
		c0,0.6,0.6,1.2,1.2,1.2h3.3c1.4,0,2.8,1.4,2.8,2.8l4.4,13.7v0l0.8,4.3v0c0,1.4-1.4,2.8-2.8,2.8H7c-1.4,0-2.8-1.4-2.8-2.8v0
		l5.2-18.3c0-1.4,1.4-2.8,2.8-2.8h3.6c0.6,0,1.2-0.6,1.2-1.2c0-0.6-0.6-1.2-1.2-1.2h-3.6c-2.9,0-5.2,2.3-5.2,5.2v0L1.8,49
		C1.8,51.9,4.1,54.1,7,54.1L7,54.1z M7,54.1"/>
	<path fill="#8D6341" d="M26.7,31.9L26.7,31.9L26.7,31.9z M26.7,38.4L26.7,38.4L26.7,38.4z M26.7,38.4"/>
</g>
</svg>
