<?xml version="1.0" encoding="utf-8"?>
<!-- Generator: Adobe Illustrator 18.1.1, SVG Export Plug-In . SVG Version: 6.00 Build 0)  -->
<svg version="1.1" id="图层_1" xmlns="http://www.w3.org/2000/svg" xmlns:xlink="http://www.w3.org/1999/xlink" x="0px" y="0px"
	 viewBox="0 0 73.7 56.7" enable-background="new 0 0 73.7 56.7" xml:space="preserve">
<g>
	<g>
		<circle fill="#8D6341" cx="50" cy="15.5" r="4.4"/>
		<g>
			<path fill="#8D6341" d="M50,21.6c-0.2,0-0.5,0-0.7,0v10.5c0.8-0.3,1.6-0.5,2.5-0.6V21.3C51.2,21.5,50.6,21.6,50,21.6z"/>
		</g>
	</g>
	<path fill="#8D6341" d="M52.5,33.7c-3.9,0-7.1,3.1-7.1,7c0,0.3,0,0.6,0.1,0.9c0.1,0.3,0.2,0.7,0.3,1c0.1,0.4,0.3,0.7,0.4,1.1
		c0.2,0.4,0.3,0.8,0.5,1.1c0.2,0.4,0.4,0.8,0.6,1.2c0.2,0.4,0.4,0.8,0.7,1.2c0.2,0.4,0.5,0.8,0.7,1.1c0.2,0.4,0.5,0.7,0.7,1.1
		c0.2,0.3,0.5,0.7,0.7,1c0.2,0.3,0.4,0.6,0.7,0.9c0.2,0.3,0.4,0.5,0.6,0.8l0.5,0.7c0.1,0.2,0.3,0.3,0.5,0.4c0.1,0,0.3,0,0.4,0
		c0.2-0.1,0.3-0.2,0.4-0.4c0.1-0.1,0.2-0.2,0.2-0.3c0.2-0.2,0.4-0.5,0.5-0.7l0.6-0.9c0.2-0.3,0.5-0.7,0.7-1c0.2-0.4,0.5-0.7,0.7-1.1
		c0.2-0.4,0.5-0.8,0.7-1.1c0.2-0.4,0.5-0.8,0.7-1.2c0.2-0.4,0.4-0.8,0.6-1.2c0.2-0.4,0.4-0.8,0.6-1.1c0.2-0.4,0.3-0.7,0.5-1.1
		c0.1-0.3,0.2-0.7,0.3-1c0.1-0.3,0.1-0.6,0.2-0.9c0-0.1,0-0.3,0-0.4C59.6,36.9,56.4,33.7,52.5,33.7z M52.4,43.7
		c-1.9,0-3.5-1.6-3.5-3.5c0-1.9,1.6-3.5,3.5-3.5c1.9,0,3.5,1.6,3.5,3.5C55.9,42.2,54.4,43.7,52.4,43.7z"/>
	<g>
		<circle fill="#8D6341" cx="23.9" cy="22.9" r="4.4"/>
		<g>
			<path fill="#8D6341" d="M62.2,5.8L49.9,3.2l0,0c-0.3-0.1-0.6-0.1-0.9,0L24.7,8.6c-0.2,0-0.3,0.1-0.4,0.1L11.9,5.8
				c-0.8-0.2-1.6,0-2.2,0.5c-0.6,0.5-0.9,1.2-0.9,2v32.9c0,1.5,1.2,2.8,2.7,2.8l11.9,2.8c0.1,0,0.3,0,0.4,0c0,0,0,0,0.1,0
				c0,0,0,0,0,0c0.2,0,1.8-0.2,1.9-0.2l18.6-4.1c0-0.1-0.1-0.2-0.1-0.2c-0.1-0.4-0.2-0.8-0.3-1.2c-0.1-0.3-0.1-0.7-0.1-1l-18.4,4.1
				V28.9c-0.5,0.1-1,0.2-1.5,0.2c-0.3,0-0.6,0-1-0.1v15.2l-11-2.6l-0.3,0c-0.2,0-0.3-0.2-0.3-0.3l0-33c0,0,0,0,0.1,0c0,0,0,0,0,0
				L22.9,11v5.9c0.3-0.1,0.6-0.1,1-0.1c0.5,0,1,0.1,1.5,0.2v-6l23.8-5.3v3.7c0.2,0,0.5,0,0.7,0c0.6,0,1.2,0.1,1.8,0.3V6.1l10,2.2
				l0.3,0c0.2,0,0.3,0.2,0.3,0.3v33.9h2.5V8.7C64.9,7.2,63.7,5.9,62.2,5.8z"/>
		</g>
	</g>
	<g>
		<circle fill="#8D6341" cx="37.9" cy="31.2" r="4.9"/>
	</g>
	<g>
		<polygon fill="#8D6341" points="38.3,33.4 22.9,23.6 24.1,21.8 37.7,30.4 46.9,18 48.7,19.3 		"/>
	</g>
</g>
</svg>
