<?xml version="1.0" encoding="utf-8"?>
<!-- Generator: Adobe Illustrator 18.1.1, SVG Export Plug-In . SVG Version: 6.00 Build 0)  -->
<svg version="1.1" id="图层_1" xmlns="http://www.w3.org/2000/svg" xmlns:xlink="http://www.w3.org/1999/xlink" x="0px" y="0px"
	 viewBox="0 0 73.7 56.7" enable-background="new 0 0 73.7 56.7" xml:space="preserve">
<g>
	<g>
		<path fill="#8D6341" d="M58.1,55.4H15.5c-4,0-7.3-3.3-7.3-7.3V20.4c0-4,3.3-7.3,7.3-7.3h42.6c4,0,7.3,3.3,7.3,7.3v27.8
			C65.5,52.1,62.2,55.4,58.1,55.4z M15.5,15.6c-2.6,0-4.8,2.1-4.8,4.8v27.8c0,2.6,2.1,4.8,4.8,4.8h42.6c2.6,0,4.8-2.1,4.8-4.8V20.4
			c0-2.6-2.1-4.8-4.8-4.8H15.5z"/>
	</g>
	<g>
		<rect x="9.2" y="24.8" fill="#8D6341" width="55.3" height="2.6"/>
	</g>
	<g>
		<path fill="#8D6341" d="M37.1,35.9c-4.8,0-8.7-3.9-8.7-8.7h2.9c0,3.2,2.6,5.8,5.8,5.8s5.8-2.6,5.8-5.8h2.9
			C45.9,32,41.9,35.9,37.1,35.9z"/>
	</g>
	<g>
		<path fill="#8D6341" d="M48.8,13.6h-2.9V6.4c0-1.4-1.2-2.6-2.6-2.6H30.5c-1.4,0-2.6,1.2-2.6,2.6v7.3h-2.9V6.4c0-3,2.5-5.5,5.5-5.5
			h12.8c3,0,5.5,2.5,5.5,5.5V13.6z"/>
	</g>
</g>
</svg>
