<?xml version="1.0" encoding="utf-8"?>
<!-- Generator: Adobe Illustrator 18.1.1, SVG Export Plug-In . SVG Version: 6.00 Build 0)  -->
<svg version="1.1" id="图层_1" xmlns="http://www.w3.org/2000/svg" xmlns:xlink="http://www.w3.org/1999/xlink" x="0px" y="0px"
	 viewBox="0 0 73.7 56.7" enable-background="new 0 0 73.7 56.7" xml:space="preserve">
<g>
	<g>
		<path fill="#8D6341" d="M36.8,31c-0.4,0-0.8-0.1-1.2-0.3L11.8,18.4c-0.9-0.5-1.4-1.4-1.4-2.4c0-1,0.6-1.9,1.5-2.3L35.7,2.3
			C36.4,2,37.2,2,38,2.3l23.9,11.4c0.9,0.4,1.5,1.3,1.5,2.3c0,1-0.5,1.9-1.4,2.4L38,30.7C37.6,30.9,37.2,31,36.8,31z M36.9,4.6
			L12.9,16l23.9,12.4l23.9-12.3c0,0,0,0,0,0L36.9,4.6z"/>
	</g>
	<g>
		<path fill="#8D6341" d="M36.8,42.2c-0.4,0-0.8-0.1-1.2-0.3L11.8,29.6c-0.6-0.3-0.9-1.1-0.5-1.7s1.1-0.9,1.7-0.5l23.9,12.3
			l23.9-12.3c0.6-0.3,1.4-0.1,1.7,0.5s0.1,1.4-0.5,1.7L38,41.9C37.6,42.1,37.2,42.2,36.8,42.2z"/>
	</g>
	<g>
		<path fill="#8D6341" d="M36.8,54.3c-0.4,0-0.8-0.1-1.2-0.3L11.8,41.6c-0.6-0.3-0.9-1.1-0.5-1.7s1.1-0.9,1.7-0.5l23.9,12.3
			l23.9-12.3c0.6-0.3,1.4-0.1,1.7,0.5s0.1,1.4-0.5,1.7L38,54C37.6,54.2,37.2,54.3,36.8,54.3z"/>
	</g>
</g>
</svg>
