<?xml version="1.0" encoding="utf-8"?>
<!-- Generator: Adobe Illustrator 18.1.1, SVG Export Plug-In . SVG Version: 6.00 Build 0)  -->
<svg version="1.1" id="图层_1" xmlns="http://www.w3.org/2000/svg" xmlns:xlink="http://www.w3.org/1999/xlink" x="0px" y="0px"
	 viewBox="0 0 73.7 56.7" enable-background="new 0 0 73.7 56.7" xml:space="preserve">
<g>
	<path fill="#8D6341" d="M50.8,26.9c-2.1,0-4.1,0.4-6,1.3V14.4c0-0.6-0.5-1.1-1.1-1.1h-1.4v-3.2c0-0.6-0.5-1.1-1.1-1.1h-2.4V7.8
		c0-0.6-0.5-1.1-1.1-1.1c-0.6,0-1.1,0.5-1.1,1.1V9h-2.4c-0.6,0-1.1,0.5-1.1,1.1v3.2h-1.4V9.1c0-0.6-0.5-1.1-1.1-1.1H28V4.8
		c0-0.6-0.5-1.1-1.1-1.1h-6.1V1.8c0-0.6-0.5-1.1-1.1-1.1c-0.6,0-1.1,0.5-1.1,1.1v1.9h-5.9c-0.6,0-1.1,0.5-1.1,1.1v3.3H9.1
		C8.5,8.1,8,8.5,8,9.1v39c0,0.6,0.5,1.1,1.1,1.1h28.8c3.6,6.3,11.2,9,18,6.6c6.8-2.5,10.8-9.5,9.6-16.6C64.2,32.1,58,26.9,50.8,26.9
		L50.8,26.9z M13.9,5.8h12v2.2h-12V5.8z M23.2,47.1h-2.3v-6.5h2.3L23.2,47.1z M18.7,47.1h-2.1v-6.5h2.1V47.1z M29.7,47.1h-4.4v-7.6
		c0-0.6-0.5-1.1-1.1-1.1h-8.7c-0.6,0-1.1,0.5-1.1,1.1v7.6h-4.4V10.2h19.6L29.7,47.1z M35.4,11.2h4.8v2.2h-4.8V11.2z M31.8,47.1V15.5
		h10.8v13.8c-0.8,0.5-1.5,1.1-2.2,1.7c-0.1,0-0.2-0.1-0.3-0.1h-5.8c-0.6,0-1.1,0.5-1.1,1.1c0,0.6,0.5,1.1,1.1,1.1h4.3
		c-0.6,0.9-1.1,1.8-1.6,2.8h-2.7c-0.6,0-1.1,0.5-1.1,1.1c0,0.6,0.5,1.1,1.1,1.1h2c-0.3,1-0.4,2.1-0.5,3.2h-1.5
		c-0.6,0-1.1,0.5-1.1,1.1c0,0.6,0.5,1.1,1.1,1.1h1.6c0.1,1.3,0.4,2.6,0.9,3.8H31.8z M50.8,54.6c-7.1,0-12.8-5.7-12.8-12.8
		C38,34.7,43.7,29,50.8,29c7.1,0,12.8,5.7,12.8,12.8C63.5,48.8,57.8,54.6,50.8,54.6L50.8,54.6z M50.8,54.6"/>
	<path fill="#8D6341" d="M13.5,21.4h12.9c0.6,0,1.1-0.5,1.1-1.1c0-0.6-0.5-1.1-1.1-1.1H13.5c-0.6,0-1.1,0.5-1.1,1.1
		C12.4,20.9,12.9,21.4,13.5,21.4L13.5,21.4z M13.5,27.3h12.9c0.6,0,1.1-0.5,1.1-1.1c0-0.6-0.5-1.1-1.1-1.1H13.5
		c-0.6,0-1.1,0.5-1.1,1.1C12.4,26.8,12.9,27.3,13.5,27.3L13.5,27.3z M13.5,33.2h12.9c0.6,0,1.1-0.5,1.1-1.1c0-0.6-0.5-1.1-1.1-1.1
		H13.5c-0.6,0-1.1,0.5-1.1,1.1C12.4,32.8,12.9,33.2,13.5,33.2L13.5,33.2z M13.5,15.5h12.9c0.6,0,1.1-0.5,1.1-1.1
		c0-0.6-0.5-1.1-1.1-1.1H13.5c-0.6,0-1.1,0.5-1.1,1.1C12.4,15,12.9,15.5,13.5,15.5L13.5,15.5z M34.3,27.8h5.5c0.6,0,1.1-0.5,1.1-1.1
		c0-0.6-0.5-1.1-1.1-1.1h-5.5c-0.6,0-1.1,0.5-1.1,1.1C33.3,27.4,33.8,27.8,34.3,27.8L34.3,27.8z M34.3,22.7h5.5
		c0.6,0,1.1-0.5,1.1-1.1s-0.5-1.1-1.1-1.1h-5.5c-0.6,0-1.1,0.5-1.1,1.1S33.8,22.7,34.3,22.7L34.3,22.7z M56.4,34.3
		c-1.5-1.5-3.6-2.4-5.7-2.4c-2.1,0-4.2,0.8-5.7,2.4c-1.4,1.5-2.3,3.4-2.5,5.4c-0.1,1.1,0.1,2.3,0.5,3.3c0.4,1.1,1,2.1,1.8,2.9l5,5.4
		c0.2,0.2,0.5,0.3,0.8,0.3c0.3,0,0.6-0.1,0.8-0.3l5-5.4c0.8-0.8,1.4-1.8,1.8-2.9c0.4-1.1,0.6-2.2,0.5-3.3
		C58.8,37.7,57.9,35.7,56.4,34.3L56.4,34.3z M56.4,42.3c-0.3,0.8-0.8,1.6-1.4,2.2L50.8,49l-4.3-4.5c-0.6-0.6-1.1-1.4-1.4-2.2
		c-0.3-0.8-0.4-1.6-0.4-2.4c0.1-1.5,0.8-3,1.8-4.1c1.1-1.1,2.6-1.7,4.2-1.7c1.6,0,3.1,0.6,4.2,1.7c1.1,1.1,1.7,2.5,1.8,4.1
		C56.8,40.7,56.7,41.5,56.4,42.3L56.4,42.3z M56.4,42.3"/>
	<path fill="#8D6341" d="M50.8,35.5c-2.2,0-4.1,1.9-4.1,4.2c0,2.3,1.8,4.2,4.1,4.2c2.2,0,4.1-1.9,4.1-4.2
		C54.8,37.4,53,35.5,50.8,35.5L50.8,35.5z M50.8,41.7c-1.1,0-1.9-0.9-1.9-2c0-1.1,0.9-2,1.9-2c1.1,0,1.9,0.9,1.9,2
		C52.7,40.8,51.8,41.7,50.8,41.7L50.8,41.7z M50.8,41.7"/>
</g>
</svg>
